<svg width="18" height="18" viewBox="0 0 18 18" fill="none" xmlns="http://www.w3.org/2000/svg">
<g clip-path="url(#clip0_9_9)">
<path d="M8.4375 10.125C7.19486 10.125 6.1875 9.11764 6.1875 7.875C6.1875 6.63236 7.19486 5.625 8.4375 5.625C9.68014 5.625 10.6875 6.63236 10.6875 7.875C10.6875 9.11764 9.68014 10.125 8.4375 10.125Z" stroke="#020617" stroke-width="1.26" stroke-linecap="round" stroke-linejoin="round"/>
<path d="M15.75 5.0625H14.0625" stroke="#020617" stroke-width="1.26" stroke-linecap="round" stroke-linejoin="round"/>
<path d="M15.75 9H14.0625" stroke="#020617" stroke-width="1.26" stroke-linecap="round" stroke-linejoin="round"/>
<path d="M15.75 12.9375H14.0625" stroke="#020617" stroke-width="1.26" stroke-linecap="round" stroke-linejoin="round"/>
<path d="M11.8125 11.8125C11.4195 11.2885 10.91 10.8633 10.3242 10.5704C9.73839 10.2775 9.09244 10.125 8.4375 10.125C7.78256 10.125 7.13661 10.2775 6.55082 10.5704C5.96502 10.8633 5.45546 11.2885 5.0625 11.8125" stroke="#020617" stroke-width="1.26" stroke-linecap="round" stroke-linejoin="round"/>
<path d="M2.8125 15.1875L2.8125 2.8125C2.8125 2.50184 3.06434 2.25 3.375 2.25L13.5 2.25C13.8107 2.25 14.0625 2.50184 14.0625 2.8125V15.1875C14.0625 15.4982 13.8107 15.75 13.5 15.75H3.375C3.06434 15.75 2.8125 15.4982 2.8125 15.1875Z" stroke="#020617" stroke-width="1.26" stroke-linecap="round" stroke-linejoin="round"/>
</g>
<defs>
<clipPath id="clip0_9_9">
<rect width="18" height="18" fill="white" transform="matrix(-1 0 0 1 18 0)"/>
</clipPath>
</defs>
</svg>
